<svg width="152" height="69" viewBox="0 0 152 69" fill="none" xmlns="http://www.w3.org/2000/svg">
<path d="M46.9569 3.88704C47.6333 3.65696 48.3812 3.80526 48.9187 4.27607L60.3454 14.2852C60.8829 14.756 61.1284 15.4778 60.9894 16.1787L58.0346 31.0792C57.8956 31.7801 57.3933 32.3535 56.7168 32.5836L42.3352 37.4749C41.6588 37.705 40.9109 37.5567 40.3734 37.0859L28.9467 27.0767C28.4092 26.6059 28.1637 25.8841 28.3027 25.1832L31.2575 10.2828C31.3965 9.58189 31.8988 9.0084 32.5753 8.77832L46.9569 3.88704Z" fill="#B2A0FA" fill-opacity="0.65"/>
<path d="M24.4844 28.6183C25.1609 28.3882 25.9087 28.5365 26.4462 29.0073L38.6252 39.6754C39.1627 40.1462 39.4082 40.868 39.2692 41.5689L36.1199 57.4502C35.9809 58.1511 35.4785 58.7246 34.802 58.9547L19.4737 64.168C18.7973 64.398 18.0494 64.2497 17.5119 63.7789L5.33294 53.1109C4.79545 52.6401 4.54997 51.9183 4.68895 51.2174L7.83828 35.336C7.97727 34.6351 8.47961 34.0616 9.15609 33.8316L24.4844 28.6183Z" fill="#7653FC"/>
<path d="M54.9219 37.5506C55.4293 37.378 55.9901 37.4892 56.3933 37.8424L65.1872 45.5453C65.5903 45.8985 65.7745 46.4398 65.6702 46.9655L63.3962 58.4328C63.292 58.9584 62.9152 59.3885 62.4079 59.5611L51.3399 63.3254C50.8325 63.498 50.2716 63.3867 49.8685 63.0336L41.0746 55.3306C40.6714 54.9775 40.4873 54.4362 40.5916 53.9105L42.8656 42.4432C42.9698 41.9176 43.3466 41.4874 43.8539 41.3149L54.9219 37.5506Z" stroke="#D3CAF9"/>
<path d="M64.14 38.6955C64.14 40.3555 63.93 41.8655 63.51 43.2255C63.11 44.5655 62.49 45.7255 61.65 46.7055C60.83 47.6855 59.77 48.4355 58.47 48.9555C57.19 49.4755 55.68 49.7355 53.94 49.7355C52.2 49.7355 50.68 49.4755 49.38 48.9555C48.1 48.4155 47.04 47.6655 46.2 46.7055C45.38 45.7255 44.76 44.5555 44.34 43.1955C43.94 41.8355 43.74 40.3255 43.74 38.6655C43.74 36.4455 44.1 34.5155 44.82 32.8755C45.56 31.2355 46.68 29.9655 48.18 29.0655C49.7 28.1455 51.63 27.6855 53.97 27.6855C56.29 27.6855 58.2 28.1455 59.7 29.0655C61.2 29.9655 62.31 31.2455 63.03 32.9055C63.77 34.5455 64.14 36.4755 64.14 38.6955ZM48.51 38.6955C48.51 40.1955 48.7 41.4855 49.08 42.5655C49.46 43.6455 50.05 44.4755 50.85 45.0555C51.65 45.6355 52.68 45.9255 53.94 45.9255C55.24 45.9255 56.28 45.6355 57.06 45.0555C57.86 44.4755 58.44 43.6455 58.8 42.5655C59.18 41.4855 59.37 40.1955 59.37 38.6955C59.37 36.4355 58.95 34.6655 58.11 33.3855C57.27 32.1055 55.89 31.4655 53.97 31.4655C52.69 31.4655 51.65 31.7555 50.85 32.3355C50.05 32.9155 49.46 33.7455 49.08 34.8255C48.7 35.9055 48.51 37.1955 48.51 38.6955ZM94.594 28.0155L89.134 49.4355H83.974L81.064 38.1855C81.004 37.9655 80.924 37.6355 80.824 37.1955C80.744 36.7555 80.644 36.2755 80.524 35.7555C80.424 35.2355 80.334 34.7455 80.254 34.2855C80.174 33.8055 80.114 33.4355 80.074 33.1755C80.054 33.4355 79.994 33.8055 79.894 34.2855C79.814 34.7455 79.724 35.2355 79.624 35.7555C79.524 36.2555 79.424 36.7355 79.324 37.1955C79.224 37.6355 79.144 37.9755 79.084 38.2155L76.204 49.4355H71.044L65.584 28.0155H70.054L72.784 39.7155C72.864 40.0555 72.954 40.4755 73.054 40.9755C73.154 41.4555 73.254 41.9655 73.354 42.5055C73.454 43.0255 73.544 43.5355 73.624 44.0355C73.724 44.5355 73.794 44.9655 73.834 45.3255C73.874 44.9455 73.934 44.5155 74.014 44.0355C74.094 43.5355 74.184 43.0355 74.284 42.5355C74.384 42.0155 74.474 41.5355 74.554 41.0955C74.654 40.6355 74.744 40.2755 74.824 40.0155L77.944 28.0155H82.234L85.354 40.0155C85.414 40.2755 85.494 40.6355 85.594 41.0955C85.694 41.5355 85.794 42.0155 85.894 42.5355C85.994 43.0555 86.084 43.5655 86.164 44.0655C86.244 44.5455 86.304 44.9655 86.344 45.3255C86.404 44.8255 86.494 44.2355 86.614 43.5555C86.734 42.8555 86.864 42.1555 87.004 41.4555C87.164 40.7555 87.294 40.1755 87.394 39.7155L90.124 28.0155H94.594ZM97.2879 49.4355V28.0155H101.818V45.6855H110.518V49.4355H97.2879Z" fill="#7653FC"/>
<path d="M121.352 47.8355C121.736 47.8355 122.08 47.8115 122.384 47.7635C122.688 47.6995 122.968 47.6275 123.224 47.5475V48.3395C122.968 48.4355 122.68 48.5155 122.36 48.5795C122.04 48.6435 121.68 48.6755 121.28 48.6755C120.544 48.6755 119.952 48.5395 119.504 48.2675C119.056 47.9795 118.72 47.5635 118.496 47.0195C118.288 46.4755 118.184 45.8035 118.184 45.0035V36.5315H116.264V35.9075L118.184 35.6915L118.472 32.6195H119.12V35.7155H123.152V36.5315H119.12V44.9315C119.12 45.8755 119.28 46.5955 119.6 47.0915C119.936 47.5875 120.52 47.8355 121.352 47.8355ZM136.403 42.0755C136.403 43.0355 136.291 43.9155 136.067 44.7155C135.843 45.5155 135.491 46.2115 135.011 46.8035C134.547 47.3955 133.963 47.8595 133.259 48.1955C132.571 48.5155 131.755 48.6755 130.811 48.6755C129.915 48.6755 129.123 48.5155 128.435 48.1955C127.747 47.8755 127.163 47.4195 126.683 46.8275C126.219 46.2355 125.867 45.5395 125.627 44.7395C125.387 43.9395 125.267 43.0515 125.267 42.0755C125.267 40.7155 125.491 39.5475 125.939 38.5715C126.387 37.5795 127.035 36.8195 127.883 36.2915C128.747 35.7475 129.763 35.4755 130.931 35.4755C132.195 35.4755 133.227 35.7635 134.027 36.3395C134.843 36.9155 135.443 37.6995 135.827 38.6915C136.211 39.6835 136.403 40.8115 136.403 42.0755ZM126.227 42.0755C126.227 43.2115 126.395 44.2195 126.731 45.0995C127.067 45.9635 127.571 46.6355 128.243 47.1155C128.931 47.5955 129.787 47.8355 130.811 47.8355C131.883 47.8355 132.755 47.5955 133.427 47.1155C134.115 46.6195 134.619 45.9395 134.939 45.0755C135.275 44.1955 135.443 43.1955 135.443 42.0755C135.443 40.9875 135.291 40.0115 134.987 39.1475C134.683 38.2835 134.203 37.5955 133.547 37.0835C132.891 36.5715 132.019 36.3155 130.931 36.3155C129.395 36.3155 128.227 36.8275 127.427 37.8515C126.627 38.8595 126.227 40.2675 126.227 42.0755ZM145.452 35.4755C147.116 35.4755 148.388 36.0275 149.268 37.1315C150.164 38.2355 150.612 39.8515 150.612 41.9795C150.612 43.4035 150.396 44.6195 149.964 45.6275C149.548 46.6195 148.94 47.3795 148.14 47.9075C147.356 48.4195 146.396 48.6755 145.26 48.6755C144.476 48.6755 143.788 48.5475 143.196 48.2915C142.604 48.0355 142.116 47.6995 141.732 47.2835C141.364 46.8675 141.084 46.4035 140.892 45.8915H140.844C140.876 46.3715 140.892 46.8675 140.892 47.3795C140.892 47.8755 140.892 48.3555 140.892 48.8195V54.0515H139.98V35.7155H140.748L140.844 38.4995H140.892C141.084 37.9715 141.372 37.4835 141.756 37.0355C142.156 36.5715 142.66 36.1955 143.268 35.9075C143.892 35.6195 144.62 35.4755 145.452 35.4755ZM145.38 36.3155C144.388 36.3155 143.564 36.5395 142.908 36.9875C142.252 37.4355 141.756 38.0835 141.42 38.9315C141.084 39.7635 140.908 40.7795 140.892 41.9795V42.1235C140.892 43.4195 141.06 44.4915 141.396 45.3395C141.748 46.1715 142.236 46.7955 142.86 47.2115C143.5 47.6275 144.284 47.8355 145.212 47.8355C146.156 47.8355 146.956 47.6115 147.612 47.1635C148.268 46.7155 148.772 46.0595 149.124 45.1955C149.476 44.3155 149.652 43.2435 149.652 41.9795C149.652 40.0915 149.292 38.6755 148.572 37.7315C147.868 36.7875 146.804 36.3155 145.38 36.3155Z" fill="#7653FC"/>
</svg>
