<svg width="76" height="78" viewBox="0 0 76 78" fill="none" xmlns="http://www.w3.org/2000/svg">
<path d="M46.9569 7.88704C47.6334 7.65696 48.3812 7.80526 48.9187 8.27607L60.3455 18.2852C60.883 18.756 61.1285 19.4778 60.9895 20.1787L58.0347 35.0792C57.8957 35.7801 57.3933 36.3535 56.7169 36.5836L42.3353 41.4749C41.6588 41.705 40.911 41.5567 40.3735 41.0859L28.9467 31.0767C28.4092 30.6059 28.1638 29.8841 28.3027 29.1832L31.2576 14.2828C31.3965 13.5819 31.8989 13.0084 32.5754 12.7783L46.9569 7.88704Z" fill="#B2A0FA" fill-opacity="0.83"/>
<path d="M24.4844 32.6183C25.1609 32.3882 25.9087 32.5365 26.4462 33.0073L38.6252 43.6754C39.1627 44.1462 39.4082 44.868 39.2692 45.5689L36.1199 61.4502C35.9809 62.1511 35.4785 62.7246 34.802 62.9547L19.4737 68.168C18.7972 68.398 18.0494 68.2497 17.5119 67.7789L5.33294 57.1109C4.79545 56.6401 4.54996 55.9183 4.68895 55.2174L7.83828 39.336C7.97727 38.6351 8.47961 38.0617 9.15609 37.8316L24.4844 32.6183Z" fill="#7653FC"/>
<path d="M56.3933 41.8424L65.1872 49.5453C65.5903 49.8985 65.7745 50.4398 65.6702 50.9655L63.3962 62.4328C63.292 62.9584 62.9152 63.3885 62.4079 63.5611L51.3399 67.3254C50.8325 67.498 50.2716 67.3867 49.8685 67.0336L41.0746 59.3306C40.6714 58.9775 40.4873 58.4362 40.5916 57.9105L42.8656 46.4432C42.9698 45.9176 43.3466 45.4874 43.8539 45.3149L54.9219 41.5506C55.4293 41.378 55.9901 41.4892 56.3933 41.8424Z" stroke="#D3CAF9"/>
</svg>
